<?xml version="1.0" encoding="utf-8" standalone="no"?>
<!DOCTYPE svg PUBLIC "-//W3C//DTD SVG 1.1//EN"
  "http://www.w3.org/Graphics/SVG/1.1/DTD/svg11.dtd">
<svg xmlns:xlink="http://www.w3.org/1999/xlink" width="603.383919pt" height="298.472385pt" viewBox="0 0 603.383919 298.472385" xmlns="http://www.w3.org/2000/svg" version="1.1">
 <metadata>
  <rdf:RDF xmlns:dc="http://purl.org/dc/elements/1.1/" xmlns:cc="http://creativecommons.org/ns#" xmlns:rdf="http://www.w3.org/1999/02/22-rdf-syntax-ns#">
   <cc:Work>
    <dc:type rdf:resource="http://purl.org/dc/dcmitype/StillImage"/>
    <dc:date>2026-07-17T06:17:01.278134</dc:date>
    <dc:format>image/svg+xml</dc:format>
    <dc:creator>
     <cc:Agent>
      <dc:title>Matplotlib v3.11.0, https://matplotlib.org/</dc:title>
     </cc:Agent>
    </dc:creator>
   </cc:Work>
  </rdf:RDF>
 </metadata>
 <defs>
  <style type="text/css">*{stroke-linejoin: round; stroke-linecap: butt}</style>
 </defs>
 <g id="figure_1">
  <g id="patch_1">
   <path d="M 0 298.472385 
L 603.383919 298.472385 
L 603.383919 0 
L 0 0 
z
" style="fill: #ffffff"/>
  </g>
  <g id="axes_1">
   <g id="patch_2">
    <path d="M 47.288281 258.798817 
L 266.594663 258.798817 
L 266.594663 40.559621 
L 47.288281 40.559621 
z
" style="fill: #ffffff"/>
   </g>
   <g id="matplotlib.axis_1">
    <g id="xtick_1">
     <g id="line2d_1">
      <defs>
       <path id="m6910ecd1ff" d="M 0 0 
L 0 3.5 
" style="stroke: #000000; stroke-width: 0.8"/>
      </defs>
      <g>
       <use xlink:href="#m6910ecd1ff" x="80.846267" y="258.798817" style="stroke: #000000; stroke-width: 0.8"/>
      </g>
     </g>
     <g id="text_1">
      <!-- fat -->
      <g transform="translate(74.740329 272.637411) scale(0.09 -0.09)">
       <defs>
        <path id="DejaVuSans-49" d="M 2375 4863 
L 2375 4384 
L 1825 4384 
Q 1516 4384 1395 4259 
Q 1275 4134 1275 3809 
L 1275 3500 
L 2222 3500 
L 2222 3053 
L 1275 3053 
L 1275 0 
L 697 0 
L 697 3053 
L 147 3053 
L 147 3500 
L 697 3500 
L 697 3744 
Q 697 4328 969 4595 
Q 1241 4863 1831 4863 
L 2375 4863 
z
" transform="scale(0.015625)"/>
        <path id="DejaVuSans-44" d="M 2194 1759 
Q 1497 1759 1228 1600 
Q 959 1441 959 1056 
Q 959 750 1161 570 
Q 1363 391 1709 391 
Q 2188 391 2477 730 
Q 2766 1069 2766 1631 
L 2766 1759 
L 2194 1759 
z
M 3341 1997 
L 3341 0 
L 2766 0 
L 2766 531 
Q 2569 213 2275 61 
Q 1981 -91 1556 -91 
Q 1019 -91 701 211 
Q 384 513 384 1019 
Q 384 1609 779 1909 
Q 1175 2209 1959 2209 
L 2766 2209 
L 2766 2266 
Q 2766 2663 2505 2880 
Q 2244 3097 1772 3097 
Q 1472 3097 1187 3025 
Q 903 2953 641 2809 
L 641 3341 
Q 956 3463 1253 3523 
Q 1550 3584 1831 3584 
Q 2591 3584 2966 3190 
Q 3341 2797 3341 1997 
z
" transform="scale(0.015625)"/>
        <path id="DejaVuSans-57" d="M 1172 4494 
L 1172 3500 
L 2356 3500 
L 2356 3053 
L 1172 3053 
L 1172 1153 
Q 1172 725 1289 603 
Q 1406 481 1766 481 
L 2356 481 
L 2356 0 
L 1766 0 
Q 1100 0 847 248 
Q 594 497 594 1153 
L 594 3053 
L 172 3053 
L 172 3500 
L 594 3500 
L 594 4494 
L 1172 4494 
z
" transform="scale(0.015625)"/>
       </defs>
       <use xlink:href="#DejaVuSans-49"/>
       <use xlink:href="#DejaVuSans-44" transform="translate(35.203125 0)"/>
       <use xlink:href="#DejaVuSans-57" transform="translate(96.484375 0)"/>
      </g>
     </g>
    </g>
    <g id="xtick_2">
     <g id="line2d_2">
      <g>
       <use xlink:href="#m6910ecd1ff" x="156.941472" y="258.798817" style="stroke: #000000; stroke-width: 0.8"/>
      </g>
     </g>
     <g id="text_2">
      <!-- RGPOT dlopen -->
      <g transform="translate(124.555534 272.637411) scale(0.09 -0.09)">
       <defs>
        <path id="DejaVuSans-35" d="M 2841 2188 
Q 3044 2119 3236 1894 
Q 3428 1669 3622 1275 
L 4263 0 
L 3584 0 
L 2988 1197 
Q 2756 1666 2539 1819 
Q 2322 1972 1947 1972 
L 1259 1972 
L 1259 0 
L 628 0 
L 628 4666 
L 2053 4666 
Q 2853 4666 3247 4331 
Q 3641 3997 3641 3322 
Q 3641 2881 3436 2590 
Q 3231 2300 2841 2188 
z
M 1259 4147 
L 1259 2491 
L 2053 2491 
Q 2509 2491 2742 2702 
Q 2975 2913 2975 3322 
Q 2975 3731 2742 3939 
Q 2509 4147 2053 4147 
L 1259 4147 
z
" transform="scale(0.015625)"/>
        <path id="DejaVuSans-2a" d="M 3809 666 
L 3809 1919 
L 2778 1919 
L 2778 2438 
L 4434 2438 
L 4434 434 
Q 4069 175 3628 42 
Q 3188 -91 2688 -91 
Q 1594 -91 976 548 
Q 359 1188 359 2328 
Q 359 3472 976 4111 
Q 1594 4750 2688 4750 
Q 3144 4750 3555 4637 
Q 3966 4525 4313 4306 
L 4313 3634 
Q 3963 3931 3569 4081 
Q 3175 4231 2741 4231 
Q 1884 4231 1454 3753 
Q 1025 3275 1025 2328 
Q 1025 1384 1454 906 
Q 1884 428 2741 428 
Q 3075 428 3337 486 
Q 3600 544 3809 666 
z
" transform="scale(0.015625)"/>
        <path id="DejaVuSans-33" d="M 1259 4147 
L 1259 2394 
L 2053 2394 
Q 2494 2394 2734 2622 
Q 2975 2850 2975 3272 
Q 2975 3691 2734 3919 
Q 2494 4147 2053 4147 
L 1259 4147 
z
M 628 4666 
L 2053 4666 
Q 2838 4666 3239 4311 
Q 3641 3956 3641 3272 
Q 3641 2581 3239 2228 
Q 2838 1875 2053 1875 
L 1259 1875 
L 1259 0 
L 628 0 
L 628 4666 
z
" transform="scale(0.015625)"/>
        <path id="DejaVuSans-32" d="M 2522 4238 
Q 1834 4238 1429 3725 
Q 1025 3213 1025 2328 
Q 1025 1447 1429 934 
Q 1834 422 2522 422 
Q 3209 422 3611 934 
Q 4013 1447 4013 2328 
Q 4013 3213 3611 3725 
Q 3209 4238 2522 4238 
z
M 2522 4750 
Q 3503 4750 4090 4092 
Q 4678 3434 4678 2328 
Q 4678 1225 4090 567 
Q 3503 -91 2522 -91 
Q 1538 -91 948 565 
Q 359 1222 359 2328 
Q 359 3434 948 4092 
Q 1538 4750 2522 4750 
z
" transform="scale(0.015625)"/>
        <path id="DejaVuSans-37" d="M -19 4666 
L 3928 4666 
L 3928 4134 
L 2272 4134 
L 2272 0 
L 1638 0 
L 1638 4134 
L -19 4134 
L -19 4666 
z
" transform="scale(0.015625)"/>
        <path id="DejaVuSans-3" transform="scale(0.015625)"/>
        <path id="DejaVuSans-47" d="M 2906 2969 
L 2906 4863 
L 3481 4863 
L 3481 0 
L 2906 0 
L 2906 525 
Q 2725 213 2448 61 
Q 2172 -91 1784 -91 
Q 1150 -91 751 415 
Q 353 922 353 1747 
Q 353 2572 751 3078 
Q 1150 3584 1784 3584 
Q 2172 3584 2448 3432 
Q 2725 3281 2906 2969 
z
M 947 1747 
Q 947 1113 1208 752 
Q 1469 391 1925 391 
Q 2381 391 2643 752 
Q 2906 1113 2906 1747 
Q 2906 2381 2643 2742 
Q 2381 3103 1925 3103 
Q 1469 3103 1208 2742 
Q 947 2381 947 1747 
z
" transform="scale(0.015625)"/>
        <path id="DejaVuSans-4f" d="M 603 4863 
L 1178 4863 
L 1178 0 
L 603 0 
L 603 4863 
z
" transform="scale(0.015625)"/>
        <path id="DejaVuSans-52" d="M 1959 3097 
Q 1497 3097 1228 2736 
Q 959 2375 959 1747 
Q 959 1119 1226 758 
Q 1494 397 1959 397 
Q 2419 397 2687 759 
Q 2956 1122 2956 1747 
Q 2956 2369 2687 2733 
Q 2419 3097 1959 3097 
z
M 1959 3584 
Q 2709 3584 3137 3096 
Q 3566 2609 3566 1747 
Q 3566 888 3137 398 
Q 2709 -91 1959 -91 
Q 1206 -91 779 398 
Q 353 888 353 1747 
Q 353 2609 779 3096 
Q 1206 3584 1959 3584 
z
" transform="scale(0.015625)"/>
        <path id="DejaVuSans-53" d="M 1159 525 
L 1159 -1331 
L 581 -1331 
L 581 3500 
L 1159 3500 
L 1159 2969 
Q 1341 3281 1617 3432 
Q 1894 3584 2278 3584 
Q 2916 3584 3314 3078 
Q 3713 2572 3713 1747 
Q 3713 922 3314 415 
Q 2916 -91 2278 -91 
Q 1894 -91 1617 61 
Q 1341 213 1159 525 
z
M 3116 1747 
Q 3116 2381 2855 2742 
Q 2594 3103 2138 3103 
Q 1681 3103 1420 2742 
Q 1159 2381 1159 1747 
Q 1159 1113 1420 752 
Q 1681 391 2138 391 
Q 2594 391 2855 752 
Q 3116 1113 3116 1747 
z
" transform="scale(0.015625)"/>
        <path id="DejaVuSans-48" d="M 3597 1894 
L 3597 1613 
L 953 1613 
Q 991 1019 1311 708 
Q 1631 397 2203 397 
Q 2534 397 2845 478 
Q 3156 559 3463 722 
L 3463 178 
Q 3153 47 2828 -22 
Q 2503 -91 2169 -91 
Q 1331 -91 842 396 
Q 353 884 353 1716 
Q 353 2575 817 3079 
Q 1281 3584 2069 3584 
Q 2775 3584 3186 3129 
Q 3597 2675 3597 1894 
z
M 3022 2063 
Q 3016 2534 2758 2815 
Q 2500 3097 2075 3097 
Q 1594 3097 1305 2825 
Q 1016 2553 972 2059 
L 3022 2063 
z
" transform="scale(0.015625)"/>
        <path id="DejaVuSans-51" d="M 3513 2113 
L 3513 0 
L 2938 0 
L 2938 2094 
Q 2938 2591 2744 2837 
Q 2550 3084 2163 3084 
Q 1697 3084 1428 2787 
Q 1159 2491 1159 1978 
L 1159 0 
L 581 0 
L 581 3500 
L 1159 3500 
L 1159 2956 
Q 1366 3272 1645 3428 
Q 1925 3584 2291 3584 
Q 2894 3584 3203 3211 
Q 3513 2838 3513 2113 
z
" transform="scale(0.015625)"/>
       </defs>
       <use xlink:href="#DejaVuSans-35"/>
       <use xlink:href="#DejaVuSans-2a" transform="translate(69.484375 0)"/>
       <use xlink:href="#DejaVuSans-33" transform="translate(146.96875 0)"/>
       <use xlink:href="#DejaVuSans-32" transform="translate(207.265625 0)"/>
       <use xlink:href="#DejaVuSans-37" transform="translate(285.984375 0)"/>
       <use xlink:href="#DejaVuSans-3" transform="translate(347.0625 0)"/>
       <use xlink:href="#DejaVuSans-47" transform="translate(378.84375 0)"/>
       <use xlink:href="#DejaVuSans-4f" transform="translate(442.328125 0)"/>
       <use xlink:href="#DejaVuSans-52" transform="translate(470.109375 0)"/>
       <use xlink:href="#DejaVuSans-53" transform="translate(531.296875 0)"/>
       <use xlink:href="#DejaVuSans-48" transform="translate(594.78125 0)"/>
       <use xlink:href="#DejaVuSans-51" transform="translate(656.3125 0)"/>
      </g>
     </g>
    </g>
    <g id="xtick_3">
     <g id="line2d_3">
      <g>
       <use xlink:href="#m6910ecd1ff" x="233.036677" y="258.798817" style="stroke: #000000; stroke-width: 0.8"/>
      </g>
     </g>
     <g id="text_3">
      <!-- ASE wrap -->
      <g transform="translate(211.683474 272.636707) scale(0.09 -0.09)">
       <defs>
        <path id="DejaVuSans-24" d="M 2188 4044 
L 1331 1722 
L 3047 1722 
L 2188 4044 
z
M 1831 4666 
L 2547 4666 
L 4325 0 
L 3669 0 
L 3244 1197 
L 1141 1197 
L 716 0 
L 50 0 
L 1831 4666 
z
" transform="scale(0.015625)"/>
        <path id="DejaVuSans-36" d="M 3425 4513 
L 3425 3897 
Q 3066 4069 2747 4153 
Q 2428 4238 2131 4238 
Q 1616 4238 1336 4038 
Q 1056 3838 1056 3469 
Q 1056 3159 1242 3001 
Q 1428 2844 1947 2747 
L 2328 2669 
Q 3034 2534 3370 2195 
Q 3706 1856 3706 1288 
Q 3706 609 3251 259 
Q 2797 -91 1919 -91 
Q 1588 -91 1214 -16 
Q 841 59 441 206 
L 441 856 
Q 825 641 1194 531 
Q 1563 422 1919 422 
Q 2459 422 2753 634 
Q 3047 847 3047 1241 
Q 3047 1584 2836 1778 
Q 2625 1972 2144 2069 
L 1759 2144 
Q 1053 2284 737 2584 
Q 422 2884 422 3419 
Q 422 4038 858 4394 
Q 1294 4750 2059 4750 
Q 2388 4750 2728 4690 
Q 3069 4631 3425 4513 
z
" transform="scale(0.015625)"/>
        <path id="DejaVuSans-28" d="M 628 4666 
L 3578 4666 
L 3578 4134 
L 1259 4134 
L 1259 2753 
L 3481 2753 
L 3481 2222 
L 1259 2222 
L 1259 531 
L 3634 531 
L 3634 0 
L 628 0 
L 628 4666 
z
" transform="scale(0.015625)"/>
        <path id="DejaVuSans-5a" d="M 269 3500 
L 844 3500 
L 1563 769 
L 2278 3500 
L 2956 3500 
L 3675 769 
L 4391 3500 
L 4966 3500 
L 4050 0 
L 3372 0 
L 2619 2869 
L 1863 0 
L 1184 0 
L 269 3500 
z
" transform="scale(0.015625)"/>
        <path id="DejaVuSans-55" d="M 2631 2963 
Q 2534 3019 2420 3045 
Q 2306 3072 2169 3072 
Q 1681 3072 1420 2755 
Q 1159 2438 1159 1844 
L 1159 0 
L 581 0 
L 581 3500 
L 1159 3500 
L 1159 2956 
Q 1341 3275 1631 3429 
Q 1922 3584 2338 3584 
Q 2397 3584 2469 3576 
Q 2541 3569 2628 3553 
L 2631 2963 
z
" transform="scale(0.015625)"/>
       </defs>
       <use xlink:href="#DejaVuSans-24"/>
       <use xlink:href="#DejaVuSans-36" transform="translate(68.40625 0)"/>
       <use xlink:href="#DejaVuSans-28" transform="translate(131.890625 0)"/>
       <use xlink:href="#DejaVuSans-3" transform="translate(195.078125 0)"/>
       <use xlink:href="#DejaVuSans-5a" transform="translate(226.859375 0)"/>
       <use xlink:href="#DejaVuSans-55" transform="translate(308.640625 0)"/>
       <use xlink:href="#DejaVuSans-44" transform="translate(349.75 0)"/>
       <use xlink:href="#DejaVuSans-53" transform="translate(411.03125 0)"/>
      </g>
     </g>
    </g>
   </g>
   <g id="matplotlib.axis_2">
    <g id="ytick_1">
     <g id="line2d_4">
      <path d="M 47.288281 258.798817 
L 266.594663 258.798817 
" clip-path="url(#p4fa51f3b1a)" style="fill: none; stroke-dasharray: 0.8,1.32; stroke-dashoffset: 0; stroke: #b0b0b0; stroke-opacity: 0.45; stroke-width: 0.8"/>
     </g>
     <g id="line2d_5">
      <defs>
       <path id="m354c02c46e" d="M 0 0 
L -3.5 0 
" style="stroke: #000000; stroke-width: 0.8"/>
      </defs>
      <g>
       <use xlink:href="#m354c02c46e" x="47.288281" y="258.798817" style="stroke: #000000; stroke-width: 0.8"/>
      </g>
     </g>
     <g id="text_4">
      <!-- 0 -->
      <g transform="translate(33.925781 262.597645) scale(0.1 -0.1)">
       <defs>
        <path id="DejaVuSans-13" d="M 2034 4250 
Q 1547 4250 1301 3770 
Q 1056 3291 1056 2328 
Q 1056 1369 1301 889 
Q 1547 409 2034 409 
Q 2525 409 2770 889 
Q 3016 1369 3016 2328 
Q 3016 3291 2770 3770 
Q 2525 4250 2034 4250 
z
M 2034 4750 
Q 2819 4750 3233 4129 
Q 3647 3509 3647 2328 
Q 3647 1150 3233 529 
Q 2819 -91 2034 -91 
Q 1250 -91 836 529 
Q 422 1150 422 2328 
Q 422 3509 836 4129 
Q 1250 4750 2034 4750 
z
" transform="scale(0.015625)"/>
       </defs>
       <use xlink:href="#DejaVuSans-13"/>
      </g>
     </g>
    </g>
    <g id="ytick_2">
     <g id="line2d_6">
      <path d="M 47.288281 213.929888 
L 266.594663 213.929888 
" clip-path="url(#p4fa51f3b1a)" style="fill: none; stroke-dasharray: 0.8,1.32; stroke-dashoffset: 0; stroke: #b0b0b0; stroke-opacity: 0.45; stroke-width: 0.8"/>
     </g>
     <g id="line2d_7">
      <g>
       <use xlink:href="#m354c02c46e" x="47.288281" y="213.929888" style="stroke: #000000; stroke-width: 0.8"/>
      </g>
     </g>
     <g id="text_5">
      <!-- 50 -->
      <g transform="translate(27.563281 217.728716) scale(0.1 -0.1)">
       <defs>
        <path id="DejaVuSans-18" d="M 691 4666 
L 3169 4666 
L 3169 4134 
L 1269 4134 
L 1269 2991 
Q 1406 3038 1543 3061 
Q 1681 3084 1819 3084 
Q 2600 3084 3056 2656 
Q 3513 2228 3513 1497 
Q 3513 744 3044 326 
Q 2575 -91 1722 -91 
Q 1428 -91 1123 -41 
Q 819 9 494 109 
L 494 744 
Q 775 591 1075 516 
Q 1375 441 1709 441 
Q 2250 441 2565 725 
Q 2881 1009 2881 1497 
Q 2881 1984 2565 2268 
Q 2250 2553 1709 2553 
Q 1456 2553 1204 2497 
Q 953 2441 691 2322 
L 691 4666 
z
" transform="scale(0.015625)"/>
       </defs>
       <use xlink:href="#DejaVuSans-18"/>
       <use xlink:href="#DejaVuSans-13" transform="translate(63.625 0)"/>
      </g>
     </g>
    </g>
    <g id="ytick_3">
     <g id="line2d_8">
      <path d="M 47.288281 169.060959 
L 266.594663 169.060959 
" clip-path="url(#p4fa51f3b1a)" style="fill: none; stroke-dasharray: 0.8,1.32; stroke-dashoffset: 0; stroke: #b0b0b0; stroke-opacity: 0.45; stroke-width: 0.8"/>
     </g>
     <g id="line2d_9">
      <g>
       <use xlink:href="#m354c02c46e" x="47.288281" y="169.060959" style="stroke: #000000; stroke-width: 0.8"/>
      </g>
     </g>
     <g id="text_6">
      <!-- 100 -->
      <g transform="translate(21.200781 172.859787) scale(0.1 -0.1)">
       <defs>
        <path id="DejaVuSans-14" d="M 794 531 
L 1825 531 
L 1825 4091 
L 703 3866 
L 703 4441 
L 1819 4666 
L 2450 4666 
L 2450 531 
L 3481 531 
L 3481 0 
L 794 0 
L 794 531 
z
" transform="scale(0.015625)"/>
       </defs>
       <use xlink:href="#DejaVuSans-14"/>
       <use xlink:href="#DejaVuSans-13" transform="translate(63.625 0)"/>
       <use xlink:href="#DejaVuSans-13" transform="translate(127.25 0)"/>
      </g>
     </g>
    </g>
    <g id="ytick_4">
     <g id="line2d_10">
      <path d="M 47.288281 124.19203 
L 266.594663 124.19203 
" clip-path="url(#p4fa51f3b1a)" style="fill: none; stroke-dasharray: 0.8,1.32; stroke-dashoffset: 0; stroke: #b0b0b0; stroke-opacity: 0.45; stroke-width: 0.8"/>
     </g>
     <g id="line2d_11">
      <g>
       <use xlink:href="#m354c02c46e" x="47.288281" y="124.19203" style="stroke: #000000; stroke-width: 0.8"/>
      </g>
     </g>
     <g id="text_7">
      <!-- 150 -->
      <g transform="translate(21.200781 127.990858) scale(0.1 -0.1)">
       <use xlink:href="#DejaVuSans-14"/>
       <use xlink:href="#DejaVuSans-18" transform="translate(63.625 0)"/>
       <use xlink:href="#DejaVuSans-13" transform="translate(127.25 0)"/>
      </g>
     </g>
    </g>
    <g id="ytick_5">
     <g id="line2d_12">
      <path d="M 47.288281 79.323101 
L 266.594663 79.323101 
" clip-path="url(#p4fa51f3b1a)" style="fill: none; stroke-dasharray: 0.8,1.32; stroke-dashoffset: 0; stroke: #b0b0b0; stroke-opacity: 0.45; stroke-width: 0.8"/>
     </g>
     <g id="line2d_13">
      <g>
       <use xlink:href="#m354c02c46e" x="47.288281" y="79.323101" style="stroke: #000000; stroke-width: 0.8"/>
      </g>
     </g>
     <g id="text_8">
      <!-- 200 -->
      <g transform="translate(21.200781 83.121929) scale(0.1 -0.1)">
       <defs>
        <path id="DejaVuSans-15" d="M 1228 531 
L 3431 531 
L 3431 0 
L 469 0 
L 469 531 
Q 828 903 1448 1529 
Q 2069 2156 2228 2338 
Q 2531 2678 2651 2914 
Q 2772 3150 2772 3378 
Q 2772 3750 2511 3984 
Q 2250 4219 1831 4219 
Q 1534 4219 1204 4116 
Q 875 4013 500 3803 
L 500 4441 
Q 881 4594 1212 4672 
Q 1544 4750 1819 4750 
Q 2544 4750 2975 4387 
Q 3406 4025 3406 3419 
Q 3406 3131 3298 2873 
Q 3191 2616 2906 2266 
Q 2828 2175 2409 1742 
Q 1991 1309 1228 531 
z
" transform="scale(0.015625)"/>
       </defs>
       <use xlink:href="#DejaVuSans-15"/>
       <use xlink:href="#DejaVuSans-13" transform="translate(63.625 0)"/>
       <use xlink:href="#DejaVuSans-13" transform="translate(127.25 0)"/>
      </g>
     </g>
    </g>
    <g id="text_9">
     <!-- wall time / single-point (ms) -->
     <g transform="translate(14.798438 219.681562) rotate(-90) scale(0.1 -0.1)">
      <defs>
       <path id="DejaVuSans-4c" d="M 603 3500 
L 1178 3500 
L 1178 0 
L 603 0 
L 603 3500 
z
M 603 4863 
L 1178 4863 
L 1178 4134 
L 603 4134 
L 603 4863 
z
" transform="scale(0.015625)"/>
       <path id="DejaVuSans-50" d="M 3328 2828 
Q 3544 3216 3844 3400 
Q 4144 3584 4550 3584 
Q 5097 3584 5394 3201 
Q 5691 2819 5691 2113 
L 5691 0 
L 5113 0 
L 5113 2094 
Q 5113 2597 4934 2840 
Q 4756 3084 4391 3084 
Q 3944 3084 3684 2787 
Q 3425 2491 3425 1978 
L 3425 0 
L 2847 0 
L 2847 2094 
Q 2847 2600 2669 2842 
Q 2491 3084 2119 3084 
Q 1678 3084 1418 2786 
Q 1159 2488 1159 1978 
L 1159 0 
L 581 0 
L 581 3500 
L 1159 3500 
L 1159 2956 
Q 1356 3278 1631 3431 
Q 1906 3584 2284 3584 
Q 2666 3584 2933 3390 
Q 3200 3197 3328 2828 
z
" transform="scale(0.015625)"/>
       <path id="DejaVuSans-12" d="M 1625 4666 
L 2156 4666 
L 531 -594 
L 0 -594 
L 1625 4666 
z
" transform="scale(0.015625)"/>
       <path id="DejaVuSans-56" d="M 2834 3397 
L 2834 2853 
Q 2591 2978 2328 3040 
Q 2066 3103 1784 3103 
Q 1356 3103 1142 2972 
Q 928 2841 928 2578 
Q 928 2378 1081 2264 
Q 1234 2150 1697 2047 
L 1894 2003 
Q 2506 1872 2764 1633 
Q 3022 1394 3022 966 
Q 3022 478 2636 193 
Q 2250 -91 1575 -91 
Q 1294 -91 989 -36 
Q 684 19 347 128 
L 347 722 
Q 666 556 975 473 
Q 1284 391 1588 391 
Q 1994 391 2212 530 
Q 2431 669 2431 922 
Q 2431 1156 2273 1281 
Q 2116 1406 1581 1522 
L 1381 1569 
Q 847 1681 609 1914 
Q 372 2147 372 2553 
Q 372 3047 722 3315 
Q 1072 3584 1716 3584 
Q 2034 3584 2315 3537 
Q 2597 3491 2834 3397 
z
" transform="scale(0.015625)"/>
       <path id="DejaVuSans-4a" d="M 2906 1791 
Q 2906 2416 2648 2759 
Q 2391 3103 1925 3103 
Q 1463 3103 1205 2759 
Q 947 2416 947 1791 
Q 947 1169 1205 825 
Q 1463 481 1925 481 
Q 2391 481 2648 825 
Q 2906 1169 2906 1791 
z
M 3481 434 
Q 3481 -459 3084 -895 
Q 2688 -1331 1869 -1331 
Q 1566 -1331 1297 -1286 
Q 1028 -1241 775 -1147 
L 775 -588 
Q 1028 -725 1275 -790 
Q 1522 -856 1778 -856 
Q 2344 -856 2625 -561 
Q 2906 -266 2906 331 
L 2906 616 
Q 2728 306 2450 153 
Q 2172 0 1784 0 
Q 1141 0 747 490 
Q 353 981 353 1791 
Q 353 2603 747 3093 
Q 1141 3584 1784 3584 
Q 2172 3584 2450 3431 
Q 2728 3278 2906 2969 
L 2906 3500 
L 3481 3500 
L 3481 434 
z
" transform="scale(0.015625)"/>
       <path id="DejaVuSans-10" d="M 313 2009 
L 1997 2009 
L 1997 1497 
L 313 1497 
L 313 2009 
z
" transform="scale(0.015625)"/>
       <path id="DejaVuSans-b" d="M 1984 4856 
Q 1566 4138 1362 3434 
Q 1159 2731 1159 2009 
Q 1159 1288 1364 580 
Q 1569 -128 1984 -844 
L 1484 -844 
Q 1016 -109 783 600 
Q 550 1309 550 2009 
Q 550 2706 781 3412 
Q 1013 4119 1484 4856 
L 1984 4856 
z
" transform="scale(0.015625)"/>
       <path id="DejaVuSans-c" d="M 513 4856 
L 1013 4856 
Q 1481 4119 1714 3412 
Q 1947 2706 1947 2009 
Q 1947 1309 1714 600 
Q 1481 -109 1013 -844 
L 513 -844 
Q 928 -128 1133 580 
Q 1338 1288 1338 2009 
Q 1338 2731 1133 3434 
Q 928 4138 513 4856 
z
" transform="scale(0.015625)"/>
      </defs>
      <use xlink:href="#DejaVuSans-5a"/>
      <use xlink:href="#DejaVuSans-44" transform="translate(81.78125 0)"/>
      <use xlink:href="#DejaVuSans-4f" transform="translate(143.0625 0)"/>
      <use xlink:href="#DejaVuSans-4f" transform="translate(170.84375 0)"/>
      <use xlink:href="#DejaVuSans-3" transform="translate(198.625 0)"/>
      <use xlink:href="#DejaVuSans-57" transform="translate(230.40625 0)"/>
      <use xlink:href="#DejaVuSans-4c" transform="translate(269.609375 0)"/>
      <use xlink:href="#DejaVuSans-50" transform="translate(297.390625 0)"/>
      <use xlink:href="#DejaVuSans-48" transform="translate(394.796875 0)"/>
      <use xlink:href="#DejaVuSans-3" transform="translate(456.328125 0)"/>
      <use xlink:href="#DejaVuSans-12" transform="translate(488.109375 0)"/>
      <use xlink:href="#DejaVuSans-3" transform="translate(521.796875 0)"/>
      <use xlink:href="#DejaVuSans-56" transform="translate(553.578125 0)"/>
      <use xlink:href="#DejaVuSans-4c" transform="translate(605.671875 0)"/>
      <use xlink:href="#DejaVuSans-51" transform="translate(633.453125 0)"/>
      <use xlink:href="#DejaVuSans-4a" transform="translate(696.828125 0)"/>
      <use xlink:href="#DejaVuSans-4f" transform="translate(760.3125 0)"/>
      <use xlink:href="#DejaVuSans-48" transform="translate(788.09375 0)"/>
      <use xlink:href="#DejaVuSans-10" transform="translate(849.625 0)"/>
      <use xlink:href="#DejaVuSans-53" transform="translate(885.703125 0)"/>
      <use xlink:href="#DejaVuSans-52" transform="translate(949.1875 0)"/>
      <use xlink:href="#DejaVuSans-4c" transform="translate(1010.375 0)"/>
      <use xlink:href="#DejaVuSans-51" transform="translate(1038.15625 0)"/>
      <use xlink:href="#DejaVuSans-57" transform="translate(1101.53125 0)"/>
      <use xlink:href="#DejaVuSans-3" transform="translate(1140.734375 0)"/>
      <use xlink:href="#DejaVuSans-b" transform="translate(1172.515625 0)"/>
      <use xlink:href="#DejaVuSans-50" transform="translate(1211.53125 0)"/>
      <use xlink:href="#DejaVuSans-56" transform="translate(1308.9375 0)"/>
      <use xlink:href="#DejaVuSans-c" transform="translate(1361.03125 0)"/>
     </g>
    </g>
   </g>
   <g id="patch_3">
    <path d="M 57.256753 258.798817 
L 104.43578 258.798817 
L 104.43578 239.340418 
L 57.256753 239.340418 
z
" clip-path="url(#p4fa51f3b1a)" style="fill: #0d7377; stroke: #ffffff; stroke-width: 0.6; stroke-linejoin: miter"/>
   </g>
   <g id="patch_4">
    <path d="M 133.351958 258.798817 
L 180.530986 258.798817 
L 180.530986 238.549602 
L 133.351958 238.549602 
z
" clip-path="url(#p4fa51f3b1a)" style="fill: #14919b; stroke: #ffffff; stroke-width: 0.6; stroke-linejoin: miter"/>
   </g>
   <g id="patch_5">
    <path d="M 209.447163 258.798817 
L 256.626191 258.798817 
L 256.626191 73.850345 
L 209.447163 73.850345 
z
" clip-path="url(#p4fa51f3b1a)" style="fill: #c44536; stroke: #ffffff; stroke-width: 0.6; stroke-linejoin: miter"/>
   </g>
   <g id="patch_6">
    <path d="M 47.288281 258.798817 
L 47.288281 40.559621 
" style="fill: none; stroke: #000000; stroke-width: 0.8; stroke-linejoin: miter; stroke-linecap: square"/>
   </g>
   <g id="patch_7">
    <path d="M 47.288281 258.798817 
L 266.594663 258.798817 
" style="fill: none; stroke: #000000; stroke-width: 0.8; stroke-linejoin: miter; stroke-linecap: square"/>
   </g>
   <g id="text_10">
    <!-- 21.7 -->
    <g transform="translate(69.743923 237.178309) scale(0.09 -0.09)">
     <defs>
      <path id="DejaVuSans-Bold-15" d="M 1844 884 
L 3897 884 
L 3897 0 
L 506 0 
L 506 884 
L 2209 2388 
Q 2438 2594 2547 2791 
Q 2656 2988 2656 3200 
Q 2656 3528 2436 3728 
Q 2216 3928 1850 3928 
Q 1569 3928 1234 3808 
Q 900 3688 519 3450 
L 519 4475 
Q 925 4609 1322 4679 
Q 1719 4750 2100 4750 
Q 2938 4750 3402 4381 
Q 3866 4013 3866 3353 
Q 3866 2972 3669 2642 
Q 3472 2313 2841 1759 
L 1844 884 
z
" transform="scale(0.015625)"/>
      <path id="DejaVuSans-Bold-14" d="M 750 831 
L 1813 831 
L 1813 3847 
L 722 3622 
L 722 4441 
L 1806 4666 
L 2950 4666 
L 2950 831 
L 4013 831 
L 4013 0 
L 750 0 
L 750 831 
z
" transform="scale(0.015625)"/>
      <path id="DejaVuSans-Bold-11" d="M 653 1209 
L 1778 1209 
L 1778 0 
L 653 0 
L 653 1209 
z
" transform="scale(0.015625)"/>
      <path id="DejaVuSans-Bold-1a" d="M 428 4666 
L 3944 4666 
L 3944 3988 
L 2125 0 
L 953 0 
L 2675 3781 
L 428 3781 
L 428 4666 
z
" transform="scale(0.015625)"/>
     </defs>
     <use xlink:href="#DejaVuSans-Bold-15"/>
     <use xlink:href="#DejaVuSans-Bold-14" transform="translate(69.578125 0)"/>
     <use xlink:href="#DejaVuSans-Bold-11" transform="translate(139.15625 0)"/>
     <use xlink:href="#DejaVuSans-Bold-1a" transform="translate(177.140625 0)"/>
    </g>
   </g>
   <g id="text_11">
    <!-- 22.6 -->
    <g transform="translate(145.839128 236.387492) scale(0.09 -0.09)">
     <defs>
      <path id="DejaVuSans-Bold-19" d="M 2316 2303 
Q 2000 2303 1842 2098 
Q 1684 1894 1684 1484 
Q 1684 1075 1842 870 
Q 2000 666 2316 666 
Q 2634 666 2792 870 
Q 2950 1075 2950 1484 
Q 2950 1894 2792 2098 
Q 2634 2303 2316 2303 
z
M 3803 4544 
L 3803 3681 
Q 3506 3822 3243 3889 
Q 2981 3956 2731 3956 
Q 2194 3956 1894 3657 
Q 1594 3359 1544 2772 
Q 1750 2925 1990 3001 
Q 2231 3078 2516 3078 
Q 3231 3078 3670 2659 
Q 4109 2241 4109 1563 
Q 4109 813 3618 361 
Q 3128 -91 2303 -91 
Q 1394 -91 895 523 
Q 397 1138 397 2266 
Q 397 3422 980 4083 
Q 1563 4744 2578 4744 
Q 2900 4744 3203 4694 
Q 3506 4644 3803 4544 
z
" transform="scale(0.015625)"/>
     </defs>
     <use xlink:href="#DejaVuSans-Bold-15"/>
     <use xlink:href="#DejaVuSans-Bold-15" transform="translate(69.578125 0)"/>
     <use xlink:href="#DejaVuSans-Bold-11" transform="translate(139.15625 0)"/>
     <use xlink:href="#DejaVuSans-Bold-19" transform="translate(177.140625 0)"/>
    </g>
   </g>
   <g id="text_12">
    <!-- 206.1 -->
    <g transform="translate(218.803318 71.688236) scale(0.09 -0.09)">
     <defs>
      <path id="DejaVuSans-Bold-13" d="M 2944 2338 
Q 2944 3213 2780 3570 
Q 2616 3928 2228 3928 
Q 1841 3928 1675 3570 
Q 1509 3213 1509 2338 
Q 1509 1453 1675 1090 
Q 1841 728 2228 728 
Q 2613 728 2778 1090 
Q 2944 1453 2944 2338 
z
M 4147 2328 
Q 4147 1169 3647 539 
Q 3147 -91 2228 -91 
Q 1306 -91 806 539 
Q 306 1169 306 2328 
Q 306 3491 806 4120 
Q 1306 4750 2228 4750 
Q 3147 4750 3647 4120 
Q 4147 3491 4147 2328 
z
" transform="scale(0.015625)"/>
     </defs>
     <use xlink:href="#DejaVuSans-Bold-15"/>
     <use xlink:href="#DejaVuSans-Bold-13" transform="translate(69.578125 0)"/>
     <use xlink:href="#DejaVuSans-Bold-19" transform="translate(139.15625 0)"/>
     <use xlink:href="#DejaVuSans-Bold-11" transform="translate(208.734375 0)"/>
     <use xlink:href="#DejaVuSans-Bold-14" transform="translate(246.71875 0)"/>
    </g>
   </g>
   <g id="text_13">
    <!-- Force-call cost (CPU, 14 atoms) -->
    <g transform="translate(70.887956 32.559621) scale(0.11 -0.11)">
     <defs>
      <path id="DejaVuSans-29" d="M 628 4666 
L 3309 4666 
L 3309 4134 
L 1259 4134 
L 1259 2759 
L 3109 2759 
L 3109 2228 
L 1259 2228 
L 1259 0 
L 628 0 
L 628 4666 
z
" transform="scale(0.015625)"/>
      <path id="DejaVuSans-46" d="M 3122 3366 
L 3122 2828 
Q 2878 2963 2633 3030 
Q 2388 3097 2138 3097 
Q 1578 3097 1268 2742 
Q 959 2388 959 1747 
Q 959 1106 1268 751 
Q 1578 397 2138 397 
Q 2388 397 2633 464 
Q 2878 531 3122 666 
L 3122 134 
Q 2881 22 2623 -34 
Q 2366 -91 2075 -91 
Q 1284 -91 818 406 
Q 353 903 353 1747 
Q 353 2603 823 3093 
Q 1294 3584 2113 3584 
Q 2378 3584 2631 3529 
Q 2884 3475 3122 3366 
z
" transform="scale(0.015625)"/>
      <path id="DejaVuSans-26" d="M 4122 4306 
L 4122 3641 
Q 3803 3938 3442 4084 
Q 3081 4231 2675 4231 
Q 1875 4231 1450 3742 
Q 1025 3253 1025 2328 
Q 1025 1406 1450 917 
Q 1875 428 2675 428 
Q 3081 428 3442 575 
Q 3803 722 4122 1019 
L 4122 359 
Q 3791 134 3420 21 
Q 3050 -91 2638 -91 
Q 1578 -91 968 557 
Q 359 1206 359 2328 
Q 359 3453 968 4101 
Q 1578 4750 2638 4750 
Q 3056 4750 3426 4639 
Q 3797 4528 4122 4306 
z
" transform="scale(0.015625)"/>
      <path id="DejaVuSans-38" d="M 556 4666 
L 1191 4666 
L 1191 1831 
Q 1191 1081 1462 751 
Q 1734 422 2344 422 
Q 2950 422 3222 751 
Q 3494 1081 3494 1831 
L 3494 4666 
L 4128 4666 
L 4128 1753 
Q 4128 841 3676 375 
Q 3225 -91 2344 -91 
Q 1459 -91 1007 375 
Q 556 841 556 1753 
L 556 4666 
z
" transform="scale(0.015625)"/>
      <path id="DejaVuSans-f" d="M 750 794 
L 1409 794 
L 1409 256 
L 897 -744 
L 494 -744 
L 750 256 
L 750 794 
z
" transform="scale(0.015625)"/>
      <path id="DejaVuSans-17" d="M 2419 4116 
L 825 1625 
L 2419 1625 
L 2419 4116 
z
M 2253 4666 
L 3047 4666 
L 3047 1625 
L 3713 1625 
L 3713 1100 
L 3047 1100 
L 3047 0 
L 2419 0 
L 2419 1100 
L 313 1100 
L 313 1709 
L 2253 4666 
z
" transform="scale(0.015625)"/>
     </defs>
     <use xlink:href="#DejaVuSans-29"/>
     <use xlink:href="#DejaVuSans-52" transform="translate(53.953125 0)"/>
     <use xlink:href="#DejaVuSans-55" transform="translate(115.140625 0)"/>
     <use xlink:href="#DejaVuSans-46" transform="translate(154.046875 0)"/>
     <use xlink:href="#DejaVuSans-48" transform="translate(209.03125 0)"/>
     <use xlink:href="#DejaVuSans-10" transform="translate(270.5625 0)"/>
     <use xlink:href="#DejaVuSans-46" transform="translate(306.640625 0)"/>
     <use xlink:href="#DejaVuSans-44" transform="translate(361.625 0)"/>
     <use xlink:href="#DejaVuSans-4f" transform="translate(422.90625 0)"/>
     <use xlink:href="#DejaVuSans-4f" transform="translate(450.6875 0)"/>
     <use xlink:href="#DejaVuSans-3" transform="translate(478.46875 0)"/>
     <use xlink:href="#DejaVuSans-46" transform="translate(510.25 0)"/>
     <use xlink:href="#DejaVuSans-52" transform="translate(565.234375 0)"/>
     <use xlink:href="#DejaVuSans-56" transform="translate(626.421875 0)"/>
     <use xlink:href="#DejaVuSans-57" transform="translate(678.515625 0)"/>
     <use xlink:href="#DejaVuSans-3" transform="translate(717.71875 0)"/>
     <use xlink:href="#DejaVuSans-b" transform="translate(749.5 0)"/>
     <use xlink:href="#DejaVuSans-26" transform="translate(788.515625 0)"/>
     <use xlink:href="#DejaVuSans-33" transform="translate(858.34375 0)"/>
     <use xlink:href="#DejaVuSans-38" transform="translate(918.640625 0)"/>
     <use xlink:href="#DejaVuSans-f" transform="translate(991.828125 0)"/>
     <use xlink:href="#DejaVuSans-3" transform="translate(1023.609375 0)"/>
     <use xlink:href="#DejaVuSans-14" transform="translate(1055.390625 0)"/>
     <use xlink:href="#DejaVuSans-17" transform="translate(1119.015625 0)"/>
     <use xlink:href="#DejaVuSans-3" transform="translate(1182.640625 0)"/>
     <use xlink:href="#DejaVuSans-44" transform="translate(1214.421875 0)"/>
     <use xlink:href="#DejaVuSans-57" transform="translate(1275.703125 0)"/>
     <use xlink:href="#DejaVuSans-52" transform="translate(1314.90625 0)"/>
     <use xlink:href="#DejaVuSans-50" transform="translate(1376.09375 0)"/>
     <use xlink:href="#DejaVuSans-56" transform="translate(1473.5 0)"/>
     <use xlink:href="#DejaVuSans-c" transform="translate(1525.59375 0)"/>
    </g>
   </g>
  </g>
  <g id="axes_2">
   <g id="patch_8">
    <path d="M 400.898319 258.798817 
L 591.59952 258.798817 
L 591.59952 40.559621 
L 400.898319 40.559621 
z
" style="fill: #ffffff"/>
   </g>
   <g id="matplotlib.axis_3">
    <g id="xtick_4">
     <g id="line2d_14">
      <g>
       <use xlink:href="#m6910ecd1ff" x="430.079176" y="258.798817" style="stroke: #000000; stroke-width: 0.8"/>
      </g>
     </g>
     <g id="text_14">
      <!-- fat -->
      <g transform="translate(423.973238 272.637411) scale(0.09 -0.09)">
       <use xlink:href="#DejaVuSans-49"/>
       <use xlink:href="#DejaVuSans-44" transform="translate(35.203125 0)"/>
       <use xlink:href="#DejaVuSans-57" transform="translate(96.484375 0)"/>
      </g>
     </g>
    </g>
    <g id="xtick_5">
     <g id="line2d_15">
      <g>
       <use xlink:href="#m6910ecd1ff" x="496.248919" y="258.798817" style="stroke: #000000; stroke-width: 0.8"/>
      </g>
     </g>
     <g id="text_15">
      <!-- RGPOT dlopen -->
      <g transform="translate(463.862982 272.637411) scale(0.09 -0.09)">
       <use xlink:href="#DejaVuSans-35"/>
       <use xlink:href="#DejaVuSans-2a" transform="translate(69.484375 0)"/>
       <use xlink:href="#DejaVuSans-33" transform="translate(146.96875 0)"/>
       <use xlink:href="#DejaVuSans-32" transform="translate(207.265625 0)"/>
       <use xlink:href="#DejaVuSans-37" transform="translate(285.984375 0)"/>
       <use xlink:href="#DejaVuSans-3" transform="translate(347.0625 0)"/>
       <use xlink:href="#DejaVuSans-47" transform="translate(378.84375 0)"/>
       <use xlink:href="#DejaVuSans-4f" transform="translate(442.328125 0)"/>
       <use xlink:href="#DejaVuSans-52" transform="translate(470.109375 0)"/>
       <use xlink:href="#DejaVuSans-53" transform="translate(531.296875 0)"/>
       <use xlink:href="#DejaVuSans-48" transform="translate(594.78125 0)"/>
       <use xlink:href="#DejaVuSans-51" transform="translate(656.3125 0)"/>
      </g>
     </g>
    </g>
    <g id="xtick_6">
     <g id="line2d_16">
      <g>
       <use xlink:href="#m6910ecd1ff" x="562.418663" y="258.798817" style="stroke: #000000; stroke-width: 0.8"/>
      </g>
     </g>
     <g id="text_16">
      <!-- ASE wrap -->
      <g transform="translate(541.06546 272.636707) scale(0.09 -0.09)">
       <use xlink:href="#DejaVuSans-24"/>
       <use xlink:href="#DejaVuSans-36" transform="translate(68.40625 0)"/>
       <use xlink:href="#DejaVuSans-28" transform="translate(131.890625 0)"/>
       <use xlink:href="#DejaVuSans-3" transform="translate(195.078125 0)"/>
       <use xlink:href="#DejaVuSans-5a" transform="translate(226.859375 0)"/>
       <use xlink:href="#DejaVuSans-55" transform="translate(308.640625 0)"/>
       <use xlink:href="#DejaVuSans-44" transform="translate(349.75 0)"/>
       <use xlink:href="#DejaVuSans-53" transform="translate(411.03125 0)"/>
      </g>
     </g>
    </g>
   </g>
   <g id="matplotlib.axis_4">
    <g id="ytick_6">
     <g id="line2d_17">
      <path d="M 400.898319 251.830541 
L 591.59952 251.830541 
" clip-path="url(#p6fc8ffa2d2)" style="fill: none; stroke-dasharray: 0.8,1.32; stroke-dashoffset: 0; stroke: #b0b0b0; stroke-opacity: 0.45; stroke-width: 0.8"/>
     </g>
     <g id="line2d_18">
      <g>
       <use xlink:href="#m354c02c46e" x="400.898319" y="251.830541" style="stroke: #000000; stroke-width: 0.8"/>
      </g>
     </g>
     <g id="text_17">
      <!-- −10.0 -->
      <g transform="translate(363.253006 255.629369) scale(0.1 -0.1)">
       <defs>
        <path id="DejaVuSans-c9c" d="M 678 2272 
L 4684 2272 
L 4684 1741 
L 678 1741 
L 678 2272 
z
" transform="scale(0.015625)"/>
        <path id="DejaVuSans-11" d="M 684 794 
L 1344 794 
L 1344 0 
L 684 0 
L 684 794 
z
" transform="scale(0.015625)"/>
       </defs>
       <use xlink:href="#DejaVuSans-c9c"/>
       <use xlink:href="#DejaVuSans-14" transform="translate(83.796875 0)"/>
       <use xlink:href="#DejaVuSans-13" transform="translate(147.421875 0)"/>
       <use xlink:href="#DejaVuSans-11" transform="translate(211.046875 0)"/>
       <use xlink:href="#DejaVuSans-13" transform="translate(242.828125 0)"/>
      </g>
     </g>
    </g>
    <g id="ytick_7">
     <g id="line2d_19">
      <path d="M 400.898319 226.29271 
L 591.59952 226.29271 
" clip-path="url(#p6fc8ffa2d2)" style="fill: none; stroke-dasharray: 0.8,1.32; stroke-dashoffset: 0; stroke: #b0b0b0; stroke-opacity: 0.45; stroke-width: 0.8"/>
     </g>
     <g id="line2d_20">
      <g>
       <use xlink:href="#m354c02c46e" x="400.898319" y="226.29271" style="stroke: #000000; stroke-width: 0.8"/>
      </g>
     </g>
     <g id="text_18">
      <!-- −7.5 -->
      <g transform="translate(369.615506 230.091538) scale(0.1 -0.1)">
       <defs>
        <path id="DejaVuSans-1a" d="M 525 4666 
L 3525 4666 
L 3525 4397 
L 1831 0 
L 1172 0 
L 2766 4134 
L 525 4134 
L 525 4666 
z
" transform="scale(0.015625)"/>
       </defs>
       <use xlink:href="#DejaVuSans-c9c"/>
       <use xlink:href="#DejaVuSans-1a" transform="translate(83.796875 0)"/>
       <use xlink:href="#DejaVuSans-11" transform="translate(147.421875 0)"/>
       <use xlink:href="#DejaVuSans-18" transform="translate(179.203125 0)"/>
      </g>
     </g>
    </g>
    <g id="ytick_8">
     <g id="line2d_21">
      <path d="M 400.898319 200.75488 
L 591.59952 200.75488 
" clip-path="url(#p6fc8ffa2d2)" style="fill: none; stroke-dasharray: 0.8,1.32; stroke-dashoffset: 0; stroke: #b0b0b0; stroke-opacity: 0.45; stroke-width: 0.8"/>
     </g>
     <g id="line2d_22">
      <g>
       <use xlink:href="#m354c02c46e" x="400.898319" y="200.75488" style="stroke: #000000; stroke-width: 0.8"/>
      </g>
     </g>
     <g id="text_19">
      <!-- −5.0 -->
      <g transform="translate(369.615506 204.553708) scale(0.1 -0.1)">
       <use xlink:href="#DejaVuSans-c9c"/>
       <use xlink:href="#DejaVuSans-18" transform="translate(83.796875 0)"/>
       <use xlink:href="#DejaVuSans-11" transform="translate(147.421875 0)"/>
       <use xlink:href="#DejaVuSans-13" transform="translate(179.203125 0)"/>
      </g>
     </g>
    </g>
    <g id="ytick_9">
     <g id="line2d_23">
      <path d="M 400.898319 175.217049 
L 591.59952 175.217049 
" clip-path="url(#p6fc8ffa2d2)" style="fill: none; stroke-dasharray: 0.8,1.32; stroke-dashoffset: 0; stroke: #b0b0b0; stroke-opacity: 0.45; stroke-width: 0.8"/>
     </g>
     <g id="line2d_24">
      <g>
       <use xlink:href="#m354c02c46e" x="400.898319" y="175.217049" style="stroke: #000000; stroke-width: 0.8"/>
      </g>
     </g>
     <g id="text_20">
      <!-- −2.5 -->
      <g transform="translate(369.615506 179.015877) scale(0.1 -0.1)">
       <use xlink:href="#DejaVuSans-c9c"/>
       <use xlink:href="#DejaVuSans-15" transform="translate(83.796875 0)"/>
       <use xlink:href="#DejaVuSans-11" transform="translate(147.421875 0)"/>
       <use xlink:href="#DejaVuSans-18" transform="translate(179.203125 0)"/>
      </g>
     </g>
    </g>
    <g id="ytick_10">
     <g id="line2d_25">
      <path d="M 400.898319 149.679219 
L 591.59952 149.679219 
" clip-path="url(#p6fc8ffa2d2)" style="fill: none; stroke-dasharray: 0.8,1.32; stroke-dashoffset: 0; stroke: #b0b0b0; stroke-opacity: 0.45; stroke-width: 0.8"/>
     </g>
     <g id="line2d_26">
      <g>
       <use xlink:href="#m354c02c46e" x="400.898319" y="149.679219" style="stroke: #000000; stroke-width: 0.8"/>
      </g>
     </g>
     <g id="text_21">
      <!-- 0.0 -->
      <g transform="translate(377.995194 153.478047) scale(0.1 -0.1)">
       <use xlink:href="#DejaVuSans-13"/>
       <use xlink:href="#DejaVuSans-11" transform="translate(63.625 0)"/>
       <use xlink:href="#DejaVuSans-13" transform="translate(95.40625 0)"/>
      </g>
     </g>
    </g>
    <g id="ytick_11">
     <g id="line2d_27">
      <path d="M 400.898319 124.141388 
L 591.59952 124.141388 
" clip-path="url(#p6fc8ffa2d2)" style="fill: none; stroke-dasharray: 0.8,1.32; stroke-dashoffset: 0; stroke: #b0b0b0; stroke-opacity: 0.45; stroke-width: 0.8"/>
     </g>
     <g id="line2d_28">
      <g>
       <use xlink:href="#m354c02c46e" x="400.898319" y="124.141388" style="stroke: #000000; stroke-width: 0.8"/>
      </g>
     </g>
     <g id="text_22">
      <!-- 2.5 -->
      <g transform="translate(377.995194 127.940216) scale(0.1 -0.1)">
       <use xlink:href="#DejaVuSans-15"/>
       <use xlink:href="#DejaVuSans-11" transform="translate(63.625 0)"/>
       <use xlink:href="#DejaVuSans-18" transform="translate(95.40625 0)"/>
      </g>
     </g>
    </g>
    <g id="ytick_12">
     <g id="line2d_29">
      <path d="M 400.898319 98.603558 
L 591.59952 98.603558 
" clip-path="url(#p6fc8ffa2d2)" style="fill: none; stroke-dasharray: 0.8,1.32; stroke-dashoffset: 0; stroke: #b0b0b0; stroke-opacity: 0.45; stroke-width: 0.8"/>
     </g>
     <g id="line2d_30">
      <g>
       <use xlink:href="#m354c02c46e" x="400.898319" y="98.603558" style="stroke: #000000; stroke-width: 0.8"/>
      </g>
     </g>
     <g id="text_23">
      <!-- 5.0 -->
      <g transform="translate(377.995194 102.402386) scale(0.1 -0.1)">
       <use xlink:href="#DejaVuSans-18"/>
       <use xlink:href="#DejaVuSans-11" transform="translate(63.625 0)"/>
       <use xlink:href="#DejaVuSans-13" transform="translate(95.40625 0)"/>
      </g>
     </g>
    </g>
    <g id="ytick_13">
     <g id="line2d_31">
      <path d="M 400.898319 73.065727 
L 591.59952 73.065727 
" clip-path="url(#p6fc8ffa2d2)" style="fill: none; stroke-dasharray: 0.8,1.32; stroke-dashoffset: 0; stroke: #b0b0b0; stroke-opacity: 0.45; stroke-width: 0.8"/>
     </g>
     <g id="line2d_32">
      <g>
       <use xlink:href="#m354c02c46e" x="400.898319" y="73.065727" style="stroke: #000000; stroke-width: 0.8"/>
      </g>
     </g>
     <g id="text_24">
      <!-- 7.5 -->
      <g transform="translate(377.995194 76.864556) scale(0.1 -0.1)">
       <use xlink:href="#DejaVuSans-1a"/>
       <use xlink:href="#DejaVuSans-11" transform="translate(63.625 0)"/>
       <use xlink:href="#DejaVuSans-18" transform="translate(95.40625 0)"/>
      </g>
     </g>
    </g>
    <g id="ytick_14">
     <g id="line2d_33">
      <path d="M 400.898319 47.527897 
L 591.59952 47.527897 
" clip-path="url(#p6fc8ffa2d2)" style="fill: none; stroke-dasharray: 0.8,1.32; stroke-dashoffset: 0; stroke: #b0b0b0; stroke-opacity: 0.45; stroke-width: 0.8"/>
     </g>
     <g id="line2d_34">
      <g>
       <use xlink:href="#m354c02c46e" x="400.898319" y="47.527897" style="stroke: #000000; stroke-width: 0.8"/>
      </g>
     </g>
     <g id="text_25">
      <!-- 10.0 -->
      <g transform="translate(371.632694 51.326725) scale(0.1 -0.1)">
       <use xlink:href="#DejaVuSans-14"/>
       <use xlink:href="#DejaVuSans-13" transform="translate(63.625 0)"/>
       <use xlink:href="#DejaVuSans-11" transform="translate(127.25 0)"/>
       <use xlink:href="#DejaVuSans-13" transform="translate(159.03125 0)"/>
      </g>
     </g>
    </g>
    <g id="text_26">
     <!-- $\Delta E$ vs fat (µeV) -->
     <g transform="translate(356.850663 186.979219) rotate(-90) scale(0.1 -0.1)">
      <defs>
       <path id="DejaVuSans-329" d="M 2188 4044 
L 906 525 
L 3472 525 
L 2188 4044 
z
M 50 0 
L 1831 4666 
L 2547 4666 
L 4325 0 
L 50 0 
z
" transform="scale(0.015625)"/>
       <path id="DejaVuSans-Oblique-28" d="M 1081 4666 
L 4031 4666 
L 3928 4134 
L 1606 4134 
L 1338 2753 
L 3566 2753 
L 3463 2222 
L 1234 2222 
L 909 531 
L 3284 531 
L 3181 0 
L 172 0 
L 1081 4666 
z
" transform="scale(0.015625)"/>
       <path id="DejaVuSans-59" d="M 191 3500 
L 800 3500 
L 1894 563 
L 2988 3500 
L 3597 3500 
L 2284 0 
L 1503 0 
L 191 3500 
z
" transform="scale(0.015625)"/>
       <path id="DejaVuSans-77" d="M 544 -1331 
L 544 3500 
L 1119 3500 
L 1119 1325 
Q 1119 872 1334 640 
Q 1550 409 1972 409 
Q 2434 409 2667 671 
Q 2900 934 2900 1459 
L 2900 3500 
L 3475 3500 
L 3475 806 
Q 3475 619 3529 530 
Q 3584 441 3700 441 
Q 3728 441 3778 458 
Q 3828 475 3916 513 
L 3916 50 
Q 3788 -22 3673 -56 
Q 3559 -91 3450 -91 
Q 3234 -91 3106 31 
Q 2978 153 2931 403 
Q 2775 156 2548 32 
Q 2322 -91 2016 -91 
Q 1697 -91 1473 31 
Q 1250 153 1119 397 
L 1119 -1331 
L 544 -1331 
z
" transform="scale(0.015625)"/>
       <path id="DejaVuSans-39" d="M 1831 0 
L 50 4666 
L 709 4666 
L 2188 738 
L 3669 4666 
L 4325 4666 
L 2547 0 
L 1831 0 
z
" transform="scale(0.015625)"/>
      </defs>
      <use xlink:href="#DejaVuSans-329" transform="translate(0 0.015625)"/>
      <use xlink:href="#DejaVuSans-Oblique-28" transform="translate(68.408203 0.015625)"/>
      <use xlink:href="#DejaVuSans-3" transform="translate(131.591797 0.015625)"/>
      <use xlink:href="#DejaVuSans-59" transform="translate(163.378906 0.015625)"/>
      <use xlink:href="#DejaVuSans-56" transform="translate(222.558594 0.015625)"/>
      <use xlink:href="#DejaVuSans-3" transform="translate(274.658203 0.015625)"/>
      <use xlink:href="#DejaVuSans-49" transform="translate(306.445312 0.015625)"/>
      <use xlink:href="#DejaVuSans-44" transform="translate(341.650391 0.015625)"/>
      <use xlink:href="#DejaVuSans-57" transform="translate(402.929688 0.015625)"/>
      <use xlink:href="#DejaVuSans-3" transform="translate(442.138672 0.015625)"/>
      <use xlink:href="#DejaVuSans-b" transform="translate(473.925781 0.015625)"/>
      <use xlink:href="#DejaVuSans-77" transform="translate(512.939453 0.015625)"/>
      <use xlink:href="#DejaVuSans-48" transform="translate(576.5625 0.015625)"/>
      <use xlink:href="#DejaVuSans-39" transform="translate(638.085938 0.015625)"/>
      <use xlink:href="#DejaVuSans-c" transform="translate(706.494141 0.015625)"/>
     </g>
    </g>
   </g>
   <g id="patch_9">
    <path d="M 409.566555 149.679219 
L 450.591796 149.679219 
L 450.591796 149.679219 
L 409.566555 149.679219 
z
" clip-path="url(#p6fc8ffa2d2)" style="fill: #0d7377; stroke: #ffffff; stroke-width: 0.6; stroke-linejoin: miter"/>
   </g>
   <g id="patch_10">
    <path d="M 475.736299 149.679219 
L 516.76154 149.679219 
L 516.76154 149.679219 
L 475.736299 149.679219 
z
" clip-path="url(#p6fc8ffa2d2)" style="fill: #14919b; stroke: #ffffff; stroke-width: 0.6; stroke-linejoin: miter"/>
   </g>
   <g id="patch_11">
    <path d="M 541.906043 149.679219 
L 582.931284 149.679219 
L 582.931284 227.614492 
L 541.906043 227.614492 
z
" clip-path="url(#p6fc8ffa2d2)" style="fill: #c44536; stroke: #ffffff; stroke-width: 0.6; stroke-linejoin: miter"/>
   </g>
   <g id="line2d_35">
    <path d="M 400.898319 149.679219 
L 591.59952 149.679219 
" clip-path="url(#p6fc8ffa2d2)" style="fill: none; stroke: #333333; stroke-width: 0.8; stroke-linecap: square"/>
   </g>
   <g id="patch_12">
    <path d="M 400.898319 258.798817 
L 400.898319 40.559621 
" style="fill: none; stroke: #000000; stroke-width: 0.8; stroke-linejoin: miter; stroke-linecap: square"/>
   </g>
   <g id="patch_13">
    <path d="M 400.898319 258.798817 
L 591.59952 258.798817 
" style="fill: none; stroke: #000000; stroke-width: 0.8; stroke-linejoin: miter; stroke-linecap: square"/>
   </g>
   <g id="text_27">
    <!-- 0 -->
    <g transform="translate(426.94816 147.517109) scale(0.09 -0.09)">
     <use xlink:href="#DejaVuSans-Bold-13"/>
    </g>
   </g>
   <g id="text_28">
    <!-- 0 -->
    <g transform="translate(493.117904 147.517109) scale(0.09 -0.09)">
     <use xlink:href="#DejaVuSans-Bold-13"/>
    </g>
   </g>
   <g id="text_29">
    <!-- -7.6 -->
    <g transform="translate(552.579835 234.452383) scale(0.09 -0.09)">
     <defs>
      <path id="DejaVuSans-Bold-10" d="M 347 2297 
L 2309 2297 
L 2309 1388 
L 347 1388 
L 347 2297 
z
" transform="scale(0.015625)"/>
     </defs>
     <use xlink:href="#DejaVuSans-Bold-10"/>
     <use xlink:href="#DejaVuSans-Bold-1a" transform="translate(41.5 0)"/>
     <use xlink:href="#DejaVuSans-Bold-11" transform="translate(111.078125 0)"/>
     <use xlink:href="#DejaVuSans-Bold-19" transform="translate(149.0625 0)"/>
    </g>
   </g>
   <g id="text_30">
    <!-- Energy agreement (PET-MAD s v1.5) -->
    <g transform="translate(396.313919 32.559621) scale(0.11 -0.11)">
     <defs>
      <path id="DejaVuSans-5c" d="M 2059 -325 
Q 1816 -950 1584 -1140 
Q 1353 -1331 966 -1331 
L 506 -1331 
L 506 -850 
L 844 -850 
Q 1081 -850 1212 -737 
Q 1344 -625 1503 -206 
L 1606 56 
L 191 3500 
L 800 3500 
L 1894 763 
L 2988 3500 
L 3597 3500 
L 2059 -325 
z
" transform="scale(0.015625)"/>
      <path id="DejaVuSans-30" d="M 628 4666 
L 1569 4666 
L 2759 1491 
L 3956 4666 
L 4897 4666 
L 4897 0 
L 4281 0 
L 4281 4097 
L 3078 897 
L 2444 897 
L 1241 4097 
L 1241 0 
L 628 0 
L 628 4666 
z
" transform="scale(0.015625)"/>
      <path id="DejaVuSans-27" d="M 1259 4147 
L 1259 519 
L 2022 519 
Q 2988 519 3436 956 
Q 3884 1394 3884 2338 
Q 3884 3275 3436 3711 
Q 2988 4147 2022 4147 
L 1259 4147 
z
M 628 4666 
L 1925 4666 
Q 3281 4666 3915 4102 
Q 4550 3538 4550 2338 
Q 4550 1131 3912 565 
Q 3275 0 1925 0 
L 628 0 
L 628 4666 
z
" transform="scale(0.015625)"/>
     </defs>
     <use xlink:href="#DejaVuSans-28"/>
     <use xlink:href="#DejaVuSans-51" transform="translate(63.1875 0)"/>
     <use xlink:href="#DejaVuSans-48" transform="translate(126.5625 0)"/>
     <use xlink:href="#DejaVuSans-55" transform="translate(188.09375 0)"/>
     <use xlink:href="#DejaVuSans-4a" transform="translate(227.453125 0)"/>
     <use xlink:href="#DejaVuSans-5c" transform="translate(290.9375 0)"/>
     <use xlink:href="#DejaVuSans-3" transform="translate(350.125 0)"/>
     <use xlink:href="#DejaVuSans-44" transform="translate(381.90625 0)"/>
     <use xlink:href="#DejaVuSans-4a" transform="translate(443.1875 0)"/>
     <use xlink:href="#DejaVuSans-55" transform="translate(506.671875 0)"/>
     <use xlink:href="#DejaVuSans-48" transform="translate(545.578125 0)"/>
     <use xlink:href="#DejaVuSans-48" transform="translate(607.109375 0)"/>
     <use xlink:href="#DejaVuSans-50" transform="translate(668.640625 0)"/>
     <use xlink:href="#DejaVuSans-48" transform="translate(766.046875 0)"/>
     <use xlink:href="#DejaVuSans-51" transform="translate(827.578125 0)"/>
     <use xlink:href="#DejaVuSans-57" transform="translate(890.953125 0)"/>
     <use xlink:href="#DejaVuSans-3" transform="translate(930.15625 0)"/>
     <use xlink:href="#DejaVuSans-b" transform="translate(961.9375 0)"/>
     <use xlink:href="#DejaVuSans-33" transform="translate(1000.953125 0)"/>
     <use xlink:href="#DejaVuSans-28" transform="translate(1061.25 0)"/>
     <use xlink:href="#DejaVuSans-37" transform="translate(1124.4375 0)"/>
     <use xlink:href="#DejaVuSans-10" transform="translate(1176.34375 0)"/>
     <use xlink:href="#DejaVuSans-30" transform="translate(1212.421875 0)"/>
     <use xlink:href="#DejaVuSans-24" transform="translate(1298.703125 0)"/>
     <use xlink:href="#DejaVuSans-27" transform="translate(1367.109375 0)"/>
     <use xlink:href="#DejaVuSans-3" transform="translate(1444.109375 0)"/>
     <use xlink:href="#DejaVuSans-56" transform="translate(1475.890625 0)"/>
     <use xlink:href="#DejaVuSans-3" transform="translate(1527.984375 0)"/>
     <use xlink:href="#DejaVuSans-59" transform="translate(1559.765625 0)"/>
     <use xlink:href="#DejaVuSans-14" transform="translate(1618.953125 0)"/>
     <use xlink:href="#DejaVuSans-11" transform="translate(1682.578125 0)"/>
     <use xlink:href="#DejaVuSans-18" transform="translate(1714.359375 0)"/>
     <use xlink:href="#DejaVuSans-c" transform="translate(1777.984375 0)"/>
    </g>
   </g>
  </g>
  <g id="text_31">
   <!-- pyeonclient metatomic backends · pet-mad-s-v1.5.0.pt · n=14 · CPU -->
   <g transform="translate(111.440698 15.558281) scale(0.11 -0.11)">
    <defs>
     <path id="DejaVuSans-45" d="M 3116 1747 
Q 3116 2381 2855 2742 
Q 2594 3103 2138 3103 
Q 1681 3103 1420 2742 
Q 1159 2381 1159 1747 
Q 1159 1113 1420 752 
Q 1681 391 2138 391 
Q 2594 391 2855 752 
Q 3116 1113 3116 1747 
z
M 1159 2969 
Q 1341 3281 1617 3432 
Q 1894 3584 2278 3584 
Q 2916 3584 3314 3078 
Q 3713 2572 3713 1747 
Q 3713 922 3314 415 
Q 2916 -91 2278 -91 
Q 1894 -91 1617 61 
Q 1341 213 1159 525 
L 1159 0 
L 581 0 
L 581 4863 
L 1159 4863 
L 1159 2969 
z
" transform="scale(0.015625)"/>
     <path id="DejaVuSans-4e" d="M 581 4863 
L 1159 4863 
L 1159 1991 
L 2875 3500 
L 3609 3500 
L 1753 1863 
L 3688 0 
L 2938 0 
L 1159 1709 
L 1159 0 
L 581 0 
L 581 4863 
z
" transform="scale(0.015625)"/>
     <path id="DejaVuSans-79" d="M 684 2619 
L 1344 2619 
L 1344 1825 
L 684 1825 
L 684 2619 
z
" transform="scale(0.015625)"/>
     <path id="DejaVuSans-20" d="M 678 2906 
L 4684 2906 
L 4684 2381 
L 678 2381 
L 678 2906 
z
M 678 1631 
L 4684 1631 
L 4684 1100 
L 678 1100 
L 678 1631 
z
" transform="scale(0.015625)"/>
    </defs>
    <use xlink:href="#DejaVuSans-53"/>
    <use xlink:href="#DejaVuSans-5c" transform="translate(63.484375 0)"/>
    <use xlink:href="#DejaVuSans-48" transform="translate(122.671875 0)"/>
    <use xlink:href="#DejaVuSans-52" transform="translate(184.203125 0)"/>
    <use xlink:href="#DejaVuSans-51" transform="translate(245.390625 0)"/>
    <use xlink:href="#DejaVuSans-46" transform="translate(308.765625 0)"/>
    <use xlink:href="#DejaVuSans-4f" transform="translate(363.75 0)"/>
    <use xlink:href="#DejaVuSans-4c" transform="translate(391.53125 0)"/>
    <use xlink:href="#DejaVuSans-48" transform="translate(419.3125 0)"/>
    <use xlink:href="#DejaVuSans-51" transform="translate(480.84375 0)"/>
    <use xlink:href="#DejaVuSans-57" transform="translate(544.21875 0)"/>
    <use xlink:href="#DejaVuSans-3" transform="translate(583.421875 0)"/>
    <use xlink:href="#DejaVuSans-50" transform="translate(615.203125 0)"/>
    <use xlink:href="#DejaVuSans-48" transform="translate(712.609375 0)"/>
    <use xlink:href="#DejaVuSans-57" transform="translate(774.140625 0)"/>
    <use xlink:href="#DejaVuSans-44" transform="translate(813.34375 0)"/>
    <use xlink:href="#DejaVuSans-57" transform="translate(874.625 0)"/>
    <use xlink:href="#DejaVuSans-52" transform="translate(913.828125 0)"/>
    <use xlink:href="#DejaVuSans-50" transform="translate(975.015625 0)"/>
    <use xlink:href="#DejaVuSans-4c" transform="translate(1072.421875 0)"/>
    <use xlink:href="#DejaVuSans-46" transform="translate(1100.203125 0)"/>
    <use xlink:href="#DejaVuSans-3" transform="translate(1155.1875 0)"/>
    <use xlink:href="#DejaVuSans-45" transform="translate(1186.96875 0)"/>
    <use xlink:href="#DejaVuSans-44" transform="translate(1250.453125 0)"/>
    <use xlink:href="#DejaVuSans-46" transform="translate(1311.734375 0)"/>
    <use xlink:href="#DejaVuSans-4e" transform="translate(1366.71875 0)"/>
    <use xlink:href="#DejaVuSans-48" transform="translate(1421.0625 0)"/>
    <use xlink:href="#DejaVuSans-51" transform="translate(1482.59375 0)"/>
    <use xlink:href="#DejaVuSans-47" transform="translate(1545.96875 0)"/>
    <use xlink:href="#DejaVuSans-56" transform="translate(1609.453125 0)"/>
    <use xlink:href="#DejaVuSans-3" transform="translate(1661.546875 0)"/>
    <use xlink:href="#DejaVuSans-79" transform="translate(1693.328125 0)"/>
    <use xlink:href="#DejaVuSans-3" transform="translate(1725.109375 0)"/>
    <use xlink:href="#DejaVuSans-53" transform="translate(1756.890625 0)"/>
    <use xlink:href="#DejaVuSans-48" transform="translate(1820.375 0)"/>
    <use xlink:href="#DejaVuSans-57" transform="translate(1881.90625 0)"/>
    <use xlink:href="#DejaVuSans-10" transform="translate(1921.109375 0)"/>
    <use xlink:href="#DejaVuSans-50" transform="translate(1957.1875 0)"/>
    <use xlink:href="#DejaVuSans-44" transform="translate(2054.59375 0)"/>
    <use xlink:href="#DejaVuSans-47" transform="translate(2115.875 0)"/>
    <use xlink:href="#DejaVuSans-10" transform="translate(2179.359375 0)"/>
    <use xlink:href="#DejaVuSans-56" transform="translate(2215.4375 0)"/>
    <use xlink:href="#DejaVuSans-10" transform="translate(2267.53125 0)"/>
    <use xlink:href="#DejaVuSans-59" transform="translate(2300.921875 0)"/>
    <use xlink:href="#DejaVuSans-14" transform="translate(2360.109375 0)"/>
    <use xlink:href="#DejaVuSans-11" transform="translate(2423.734375 0)"/>
    <use xlink:href="#DejaVuSans-18" transform="translate(2455.515625 0)"/>
    <use xlink:href="#DejaVuSans-11" transform="translate(2519.140625 0)"/>
    <use xlink:href="#DejaVuSans-13" transform="translate(2550.921875 0)"/>
    <use xlink:href="#DejaVuSans-11" transform="translate(2614.546875 0)"/>
    <use xlink:href="#DejaVuSans-53" transform="translate(2646.328125 0)"/>
    <use xlink:href="#DejaVuSans-57" transform="translate(2709.8125 0)"/>
    <use xlink:href="#DejaVuSans-3" transform="translate(2749.015625 0)"/>
    <use xlink:href="#DejaVuSans-79" transform="translate(2780.796875 0)"/>
    <use xlink:href="#DejaVuSans-3" transform="translate(2812.578125 0)"/>
    <use xlink:href="#DejaVuSans-51" transform="translate(2844.359375 0)"/>
    <use xlink:href="#DejaVuSans-20" transform="translate(2907.734375 0)"/>
    <use xlink:href="#DejaVuSans-14" transform="translate(2991.53125 0)"/>
    <use xlink:href="#DejaVuSans-17" transform="translate(3055.15625 0)"/>
    <use xlink:href="#DejaVuSans-3" transform="translate(3118.78125 0)"/>
    <use xlink:href="#DejaVuSans-79" transform="translate(3150.5625 0)"/>
    <use xlink:href="#DejaVuSans-3" transform="translate(3182.34375 0)"/>
    <use xlink:href="#DejaVuSans-26" transform="translate(3214.125 0)"/>
    <use xlink:href="#DejaVuSans-33" transform="translate(3283.953125 0)"/>
    <use xlink:href="#DejaVuSans-38" transform="translate(3344.25 0)"/>
   </g>
  </g>
  <g id="text_32">
   <!-- fat = PotType.METATOMIC  ·  RGPOT = dlopen libmetatomic_engine  ·  ASE = MetatomicCalculator wrap -->
   <g style="fill: #444444" transform="translate(92.03976 289.35051) scale(0.08 -0.08)">
    <defs>
     <path id="DejaVuSans-2c" d="M 628 4666 
L 1259 4666 
L 1259 0 
L 628 0 
L 628 4666 
z
" transform="scale(0.015625)"/>
     <path id="DejaVuSans-42" d="M 3263 -1063 
L 3263 -1509 
L -63 -1509 
L -63 -1063 
L 3263 -1063 
z
" transform="scale(0.015625)"/>
     <path id="DejaVuSans-58" d="M 544 1381 
L 544 3500 
L 1119 3500 
L 1119 1403 
Q 1119 906 1312 657 
Q 1506 409 1894 409 
Q 2359 409 2629 706 
Q 2900 1003 2900 1516 
L 2900 3500 
L 3475 3500 
L 3475 0 
L 2900 0 
L 2900 538 
Q 2691 219 2414 64 
Q 2138 -91 1772 -91 
Q 1169 -91 856 284 
Q 544 659 544 1381 
z
M 1991 3584 
L 1991 3584 
z
" transform="scale(0.015625)"/>
    </defs>
    <use xlink:href="#DejaVuSans-49"/>
    <use xlink:href="#DejaVuSans-44" transform="translate(35.203125 0)"/>
    <use xlink:href="#DejaVuSans-57" transform="translate(96.484375 0)"/>
    <use xlink:href="#DejaVuSans-3" transform="translate(135.6875 0)"/>
    <use xlink:href="#DejaVuSans-20" transform="translate(167.46875 0)"/>
    <use xlink:href="#DejaVuSans-3" transform="translate(251.265625 0)"/>
    <use xlink:href="#DejaVuSans-33" transform="translate(283.046875 0)"/>
    <use xlink:href="#DejaVuSans-52" transform="translate(339.78125 0)"/>
    <use xlink:href="#DejaVuSans-57" transform="translate(400.96875 0)"/>
    <use xlink:href="#DejaVuSans-37" transform="translate(440.171875 0)"/>
    <use xlink:href="#DejaVuSans-5c" transform="translate(485.671875 0)"/>
    <use xlink:href="#DejaVuSans-53" transform="translate(544.859375 0)"/>
    <use xlink:href="#DejaVuSans-48" transform="translate(608.34375 0)"/>
    <use xlink:href="#DejaVuSans-11" transform="translate(669.875 0)"/>
    <use xlink:href="#DejaVuSans-30" transform="translate(701.65625 0)"/>
    <use xlink:href="#DejaVuSans-28" transform="translate(787.9375 0)"/>
    <use xlink:href="#DejaVuSans-37" transform="translate(851.125 0)"/>
    <use xlink:href="#DejaVuSans-24" transform="translate(904.4375 0)"/>
    <use xlink:href="#DejaVuSans-37" transform="translate(965.078125 0)"/>
    <use xlink:href="#DejaVuSans-32" transform="translate(1026.15625 0)"/>
    <use xlink:href="#DejaVuSans-30" transform="translate(1104.875 0)"/>
    <use xlink:href="#DejaVuSans-2c" transform="translate(1191.15625 0)"/>
    <use xlink:href="#DejaVuSans-26" transform="translate(1220.65625 0)"/>
    <use xlink:href="#DejaVuSans-3" transform="translate(1290.484375 0)"/>
    <use xlink:href="#DejaVuSans-3" transform="translate(1322.265625 0)"/>
    <use xlink:href="#DejaVuSans-79" transform="translate(1354.046875 0)"/>
    <use xlink:href="#DejaVuSans-3" transform="translate(1385.828125 0)"/>
    <use xlink:href="#DejaVuSans-3" transform="translate(1417.609375 0)"/>
    <use xlink:href="#DejaVuSans-35" transform="translate(1449.390625 0)"/>
    <use xlink:href="#DejaVuSans-2a" transform="translate(1518.875 0)"/>
    <use xlink:href="#DejaVuSans-33" transform="translate(1596.359375 0)"/>
    <use xlink:href="#DejaVuSans-32" transform="translate(1656.65625 0)"/>
    <use xlink:href="#DejaVuSans-37" transform="translate(1735.375 0)"/>
    <use xlink:href="#DejaVuSans-3" transform="translate(1796.453125 0)"/>
    <use xlink:href="#DejaVuSans-20" transform="translate(1828.234375 0)"/>
    <use xlink:href="#DejaVuSans-3" transform="translate(1912.03125 0)"/>
    <use xlink:href="#DejaVuSans-47" transform="translate(1943.8125 0)"/>
    <use xlink:href="#DejaVuSans-4f" transform="translate(2007.296875 0)"/>
    <use xlink:href="#DejaVuSans-52" transform="translate(2035.078125 0)"/>
    <use xlink:href="#DejaVuSans-53" transform="translate(2096.265625 0)"/>
    <use xlink:href="#DejaVuSans-48" transform="translate(2159.75 0)"/>
    <use xlink:href="#DejaVuSans-51" transform="translate(2221.28125 0)"/>
    <use xlink:href="#DejaVuSans-3" transform="translate(2284.65625 0)"/>
    <use xlink:href="#DejaVuSans-4f" transform="translate(2316.4375 0)"/>
    <use xlink:href="#DejaVuSans-4c" transform="translate(2344.21875 0)"/>
    <use xlink:href="#DejaVuSans-45" transform="translate(2372 0)"/>
    <use xlink:href="#DejaVuSans-50" transform="translate(2435.484375 0)"/>
    <use xlink:href="#DejaVuSans-48" transform="translate(2532.890625 0)"/>
    <use xlink:href="#DejaVuSans-57" transform="translate(2594.421875 0)"/>
    <use xlink:href="#DejaVuSans-44" transform="translate(2633.625 0)"/>
    <use xlink:href="#DejaVuSans-57" transform="translate(2694.90625 0)"/>
    <use xlink:href="#DejaVuSans-52" transform="translate(2734.109375 0)"/>
    <use xlink:href="#DejaVuSans-50" transform="translate(2795.296875 0)"/>
    <use xlink:href="#DejaVuSans-4c" transform="translate(2892.703125 0)"/>
    <use xlink:href="#DejaVuSans-46" transform="translate(2920.484375 0)"/>
    <use xlink:href="#DejaVuSans-42" transform="translate(2975.46875 0)"/>
    <use xlink:href="#DejaVuSans-48" transform="translate(3025.46875 0)"/>
    <use xlink:href="#DejaVuSans-51" transform="translate(3087 0)"/>
    <use xlink:href="#DejaVuSans-4a" transform="translate(3150.375 0)"/>
    <use xlink:href="#DejaVuSans-4c" transform="translate(3213.859375 0)"/>
    <use xlink:href="#DejaVuSans-51" transform="translate(3241.640625 0)"/>
    <use xlink:href="#DejaVuSans-48" transform="translate(3305.015625 0)"/>
    <use xlink:href="#DejaVuSans-3" transform="translate(3366.546875 0)"/>
    <use xlink:href="#DejaVuSans-3" transform="translate(3398.328125 0)"/>
    <use xlink:href="#DejaVuSans-79" transform="translate(3430.109375 0)"/>
    <use xlink:href="#DejaVuSans-3" transform="translate(3461.890625 0)"/>
    <use xlink:href="#DejaVuSans-3" transform="translate(3493.671875 0)"/>
    <use xlink:href="#DejaVuSans-24" transform="translate(3525.453125 0)"/>
    <use xlink:href="#DejaVuSans-36" transform="translate(3593.859375 0)"/>
    <use xlink:href="#DejaVuSans-28" transform="translate(3657.34375 0)"/>
    <use xlink:href="#DejaVuSans-3" transform="translate(3720.53125 0)"/>
    <use xlink:href="#DejaVuSans-20" transform="translate(3752.3125 0)"/>
    <use xlink:href="#DejaVuSans-3" transform="translate(3836.109375 0)"/>
    <use xlink:href="#DejaVuSans-30" transform="translate(3867.890625 0)"/>
    <use xlink:href="#DejaVuSans-48" transform="translate(3954.171875 0)"/>
    <use xlink:href="#DejaVuSans-57" transform="translate(4015.703125 0)"/>
    <use xlink:href="#DejaVuSans-44" transform="translate(4054.90625 0)"/>
    <use xlink:href="#DejaVuSans-57" transform="translate(4116.1875 0)"/>
    <use xlink:href="#DejaVuSans-52" transform="translate(4155.390625 0)"/>
    <use xlink:href="#DejaVuSans-50" transform="translate(4216.578125 0)"/>
    <use xlink:href="#DejaVuSans-4c" transform="translate(4313.984375 0)"/>
    <use xlink:href="#DejaVuSans-46" transform="translate(4341.765625 0)"/>
    <use xlink:href="#DejaVuSans-26" transform="translate(4396.75 0)"/>
    <use xlink:href="#DejaVuSans-44" transform="translate(4466.578125 0)"/>
    <use xlink:href="#DejaVuSans-4f" transform="translate(4527.859375 0)"/>
    <use xlink:href="#DejaVuSans-46" transform="translate(4555.640625 0)"/>
    <use xlink:href="#DejaVuSans-58" transform="translate(4610.625 0)"/>
    <use xlink:href="#DejaVuSans-4f" transform="translate(4674 0)"/>
    <use xlink:href="#DejaVuSans-44" transform="translate(4701.78125 0)"/>
    <use xlink:href="#DejaVuSans-57" transform="translate(4763.0625 0)"/>
    <use xlink:href="#DejaVuSans-52" transform="translate(4802.265625 0)"/>
    <use xlink:href="#DejaVuSans-55" transform="translate(4863.453125 0)"/>
    <use xlink:href="#DejaVuSans-3" transform="translate(4904.5625 0)"/>
    <use xlink:href="#DejaVuSans-5a" transform="translate(4936.34375 0)"/>
    <use xlink:href="#DejaVuSans-55" transform="translate(5018.125 0)"/>
    <use xlink:href="#DejaVuSans-44" transform="translate(5059.234375 0)"/>
    <use xlink:href="#DejaVuSans-53" transform="translate(5120.515625 0)"/>
   </g>
  </g>
 </g>
 <defs>
  <clipPath id="p4fa51f3b1a">
   <rect x="47.288281" y="40.559621" width="219.306381" height="218.239196"/>
  </clipPath>
  <clipPath id="p6fc8ffa2d2">
   <rect x="400.898319" y="40.559621" width="190.701201" height="218.239196"/>
  </clipPath>
 </defs>
</svg>
